<?xml version="1.0" encoding="UTF-8" standalone="no"?>
<svg width="57px" height="63px" viewBox="0 0 57 63" version="1.1" xmlns="http://www.w3.org/2000/svg" xmlns:xlink="http://www.w3.org/1999/xlink" xmlns:sketch="http://www.bohemiancoding.com/sketch/ns">
    <!-- Generator: Sketch 3.0.3 (7891) - http://www.bohemiancoding.com/sketch -->
    <title>Molecule</title>
    <desc>Created with Sketch.</desc>
    <defs></defs>
    <g id="Page-1" stroke="none" stroke-width="1" fill="none" fill-rule="evenodd" sketch:type="MSPage">
        <g id="Molecule" sketch:type="MSLayerGroup" transform="translate(1.000000, 1.000000)" stroke="#6B6C6E" stroke-width="2">
            <path d="M28,34 L28,51" id="Shape" sketch:type="MSShapeGroup"></path>
            <path d="M10.8,37.5 L20.1,30.7" id="Shape" sketch:type="MSShapeGroup"></path>
            <path d="M35.6,31.8 L43.8,37.5" id="Shape" sketch:type="MSShapeGroup"></path>
            <path d="M34.5,19.7 L44.4,10.8" id="Shape" sketch:type="MSShapeGroup"></path>
            <path d="M16.8,12.5 L22.3,18.5" id="Shape" sketch:type="MSShapeGroup"></path>
            <circle id="Oval" sketch:type="MSShapeGroup" cx="28" cy="25" r="9"></circle>
            <circle id="Oval" sketch:type="MSShapeGroup" cx="28" cy="56" r="5"></circle>
            <path d="M46.3,34.4 C51.4,32.7 56,37.1 54.8,42.1 C54.2,44.4 52.4,46.3 50.1,46.8 C45.1,48 40.7,43.4 42.4,38.3 C43,36.5 44.5,35 46.3,34.4 L46.3,34.4 Z" id="Shape" sketch:type="MSShapeGroup"></path>
            <circle id="Oval" sketch:type="MSShapeGroup" cx="6" cy="42" r="6"></circle>
            <circle id="Oval" sketch:type="MSShapeGroup" cx="48" cy="8" r="4"></circle>
            <circle id="Oval" sketch:type="MSShapeGroup" cx="11.5" cy="7.5" r="7.5"></circle>
        </g>
    </g>
</svg>